<?xml version="1.0" encoding="UTF-8"?>
<svg width="253px" height="169px" viewBox="0 0 253 169" version="1.1" xmlns="http://www.w3.org/2000/svg" xmlns:xlink="http://www.w3.org/1999/xlink">
    <g id="iOS-Portrait" stroke="none" stroke-width="1" fill="none" fill-rule="evenodd">
        <g id="11.3.-Guide-Usage-6.1" transform="translate(-62.000000, -91.000000)">
            <g id="Group" transform="translate(62.000000, 91.000000)">
                <g id="Group-12" transform="translate(0.000000, 17.435897)">
                    <path d="M44.7112069,98.2281078 C47.8014968,98.2297631 50.3060491,100.736449 50.3060491,103.82801 C50.3060491,100.736449 52.8111529,98.2297631 55.9003397,98.2281078 C52.8111529,98.2264525 50.3060491,95.7203181 50.3060491,92.6282051 C50.3060491,95.7203181 47.8014968,98.2264525 44.7112069,98.2281078" id="Fill-1" fill="#FFFC81"></path>
                    <path d="M88.3318966,5.59990263 C91.4221864,5.60155794 93.9267387,8.10824408 93.9267387,11.1998053 C93.9267387,8.10824408 96.4318425,5.60155794 99.5210293,5.59990263 C96.4318425,5.59824732 93.9267387,3.09211295 93.9267387,0 C93.9267387,3.09211295 91.4221864,5.59824732 88.3318966,5.59990263" id="Fill-1-Copy" fill="#FFFC81"></path>
                    <path d="M7.46210299,124.022697 C10.6604951,124.024352 14.2008433,124.59433 16.2156262,126.770506 C18.0395757,128.740321 18.4951494,132.169013 18.4951494,135.0658 C18.4951494,131.867196 18.4791547,128.787222 20.6516786,126.770506 C22.6195805,124.943048 26.6309456,124.024352 29.5281958,124.022697 C26.3590354,124.021042 22.6631523,124.035388 20.6516786,121.894525 C18.7940851,119.91864 18.4951494,115.906177 18.4951494,112.979594 C18.4951494,116.130195 18.3313414,119.882775 16.2156262,121.894525 C14.2366935,123.776056 10.4073373,124.021042 7.46210299,124.022697" id="Fill-5" fill="#FFFC81"></path>
                    <path d="M25.0818966,51.6411555 C25.0818966,52.4765336 25.7591901,53.1541058 26.5942247,53.1541058 C27.4298109,53.1541058 28.1065529,52.4765336 28.1065529,51.6411555 C28.1065529,50.8057773 27.4298109,50.1282051 26.5942247,50.1282051 C25.7591901,50.1282051 25.0818966,50.8057773 25.0818966,51.6411555" id="Fill-7" fill="#FFFFFF"></path>
                    <path d="M20.4367979,143.722944 C21.6612211,144.796134 21.7836635,146.657803 20.7109142,147.88273 C19.6387166,149.107105 17.7772623,149.229598 16.5533906,148.156959 C15.3295189,147.08432 15.2070765,145.2221 16.2792742,143.997725 C17.3514719,142.77335 19.2129261,142.650305 20.4367979,143.722944" id="Fill-13" fill="#FFDB4F"></path>
                    <path d="M5.85395675,72.7984303 C7.31995542,74.0835001 7.46721714,76.31375 6.18267579,77.7803518 C4.89868599,79.2464018 2.66935319,79.3931723 1.20280298,78.1086543 C-0.262644144,76.8235845 -0.409354318,74.5933346 0.874635482,73.1272846 C2.15917683,71.6601311 4.38850963,71.5133606 5.85395675,72.7984303" id="Fill-17" fill="#FFDB4F"></path>
                    <path d="M63.507174,118.807978 C64.2385187,120.61447 63.3681854,122.67312 61.5618853,123.405317 C59.7555852,124.137514 57.6983335,123.266271 56.9664373,121.45978 C56.2339895,119.652737 57.1048743,117.594087 58.9111744,116.862441 C60.7174745,116.12914 62.7752777,117.000935 63.507174,118.807978" id="Fill-33" fill="#00BBA5"></path>
                    <path d="M42.5138848,150.930811 C40.4246437,149.702022 39.7269431,147.011597 40.9552271,144.922048 C42.1829596,142.831947 44.8722785,142.133959 46.9609681,143.362749 C49.0507608,144.590986 49.7484614,147.28086 48.5207289,149.371512 C47.2924448,151.460509 44.6025744,152.159049 42.5138848,150.930811" id="Fill-37" fill="#F25234"></path>
                    <path d="M29.9018655,81.616222 C28.4992941,80.7913275 28.0304834,78.9853879 28.8550387,77.5816878 C29.6801456,76.1779877 31.4858941,75.7089841 32.8879139,76.5344304 C34.2915883,77.3593249 34.7598475,79.1658163 33.9358437,80.5689646 C33.1101853,81.9726647 31.3049883,82.4416683 29.9018655,81.616222" id="Fill-39" fill="#34B7EE"></path>
                </g>
                <g id="Group-12-Copy" transform="translate(201.200431, 85.000000) scale(-1, 1) translate(-201.200431, -85.000000) translate(149.400862, 0.000000)">
                    <path d="M45.1193922,115.664005 C48.2096821,115.66566 50.7142343,118.172347 50.7142343,121.263908 C50.7142343,118.172347 53.2193381,115.66566 56.3085249,115.664005 C53.2193381,115.66235 50.7142343,113.156216 50.7142343,110.064103 C50.7142343,113.156216 48.2096821,115.66235 45.1193922,115.664005" id="Fill-1" fill="#FFFC81"></path>
                    <path d="M7.63362069,141.812334 C10.8320128,141.813989 14.372361,142.383966 16.3871439,144.560143 C18.2110934,146.529958 18.6666671,149.95865 18.6666671,152.855437 C18.6666671,149.656832 18.6506724,146.576858 20.8231963,144.560143 C22.7910982,142.732684 26.8024633,141.813989 29.6997135,141.812334 C26.5305531,141.810678 22.83467,141.825024 20.8231963,139.684161 C18.9656028,137.708277 18.6666671,133.695813 18.6666671,130.769231 C18.6666671,133.919831 18.5028591,137.672412 16.3871439,139.684161 C14.4082112,141.565693 10.578855,141.810678 7.63362069,141.812334" id="Fill-5" fill="#FFFC81"></path>
                    <path d="M80.6982759,11.0431029 C83.896668,11.0447582 87.4370161,11.6147355 89.4517991,13.790912 C91.2757485,15.760727 91.7313222,19.189419 91.7313222,22.0862058 C91.7313222,18.8876014 91.7153275,15.8076274 93.8878515,13.790912 C95.8557534,11.9634534 99.8671184,11.0447582 102.764369,11.0431029 C99.5952082,11.0414476 95.8993252,11.0557936 93.8878515,8.91493022 C92.030258,6.93904576 91.7313222,2.92658228 91.7313222,0 C91.7313222,3.15060045 91.5675143,6.90318079 89.4517991,8.91493022 C87.4728664,10.7964622 83.6435102,11.0414476 80.6982759,11.0431029" id="Fill-5-Copy" fill="#FFFC81"></path>
                    <path d="M25.0818966,69.0770529 C25.0818966,69.912431 25.7591901,70.5900032 26.5942247,70.5900032 C27.4298109,70.5900032 28.1065529,69.912431 28.1065529,69.0770529 C28.1065529,68.2416748 27.4298109,67.5641026 26.5942247,67.5641026 C25.7591901,67.5641026 25.0818966,68.2416748 25.0818966,69.0770529" id="Fill-7" fill="#FFFFFF"></path>
                    <path d="M20.4367979,161.158841 C21.6612211,162.232032 21.7836635,164.0937 20.7109142,165.318627 C19.6387166,166.543002 17.7772623,166.665495 16.5533906,165.592856 C15.3295189,164.520217 15.2070765,162.657997 16.2792742,161.433622 C17.3514719,160.209247 19.2129261,160.086203 20.4367979,161.158841" id="Fill-13" fill="#FFDB4F"></path>
                    <path d="M5.85395675,90.2343278 C7.31995542,91.5193976 7.46721714,93.7496475 6.18267579,95.2162492 C4.89868599,96.6822992 2.66935319,96.8290697 1.20280298,95.5445517 C-0.262644144,94.2594819 -0.409354318,92.029232 0.874635482,90.563182 C2.15917683,89.0960285 4.38850963,88.949258 5.85395675,90.2343278" id="Fill-17" fill="#FFDB4F"></path>
                    <path d="M63.507174,136.243876 C64.2385187,138.050367 63.3681854,140.109017 61.5618853,140.841214 C59.7555852,141.573412 57.6983335,140.702169 56.9664373,138.895677 C56.2339895,137.088634 57.1048743,135.029984 58.9111744,134.298339 C60.7174745,133.565038 62.7752777,134.436833 63.507174,136.243876" id="Fill-33" fill="#00BBA5"></path>
                    <path d="M42.5138848,168.366709 C40.4246437,167.137919 39.7269431,164.447494 40.9552271,162.357945 C42.1829596,160.267845 44.8722785,159.569857 46.9609681,160.798646 C49.0507608,162.026884 49.7484614,164.716757 48.5207289,166.80741 C47.2924448,168.896407 44.6025744,169.594946 42.5138848,168.366709" id="Fill-37" fill="#F25234"></path>
                    <path d="M29.9018655,99.0521194 C28.4992941,98.2272249 28.0304834,96.4212853 28.8550387,95.0175852 C29.6801456,93.6138851 31.4858941,93.1448815 32.8879139,93.9703278 C34.2915883,94.7952223 34.7598475,96.6017137 33.9358437,98.0048621 C33.1101853,99.4085622 31.3049883,99.8775657 29.9018655,99.0521194" id="Fill-39" fill="#34B7EE"></path>
                </g>
            </g>
        </g>
    </g>
</svg>